{"asset":{"version":"2.0","generator":"babylon.js glTF exporter for 3dsmax 2020 v20211115.1"},"scene":0,"scenes":[{"nodes":[0,1,2,3,4,5,6,7,8,9]}],"nodes":[{"mesh":0,"translation":[0.0,0.0,-3.814697E-07],"name":"counterfort"},{"mesh":1,"rotation":[-5.3385083E-08,-0.7071068,0.7071068,-5.3385083E-08],"name":"door"},{"mesh":2,"rotation":[0.7071068,0.0,0.0,0.7071067],"name":"glass"},{"mesh":3,"name":"kant's tomb"},{"mesh":4,"name":"roof"},{"mesh":5,"name":"towers"},{"mesh":6,"name":"walls"},{"mesh":7,"name":"wall windows"},{"mesh":8,"rotation":[0.0,0.7071068,0.0,0.7071067],"name":"tower windows"},{"mesh":9,"name":"wood frames"}],"meshes":[{"primitives":[{"attributes":{"POSITION":1,"NORMAL":2,"TEXCOORD_0":3},"indices":0,"material":0}],"name":"counterfort"},{"primitives":[{"attributes":{"POSITION":5,"NORMAL":6,"TEXCOORD_0":7},"indices":4,"material":1}],"name":"door"},{"primitives":[{"attributes":{"POSITION":9,"NORMAL":10,"TEXCOORD_0":11},"indices":8,"material":2}],"name":"glass"},{"primitives":[{"attributes":{"POSITION":13,"NORMAL":14,"TEXCOORD_0":15},"indices":12,"material":3}],"name":"kant's tomb"},{"primitives":[{"attributes":{"POSITION":17,"NORMAL":18,"TEXCOORD_0":19},"indices":16,"material":4}],"name":"roof"},{"primitives":[{"attributes":{"POSITION":21,"NORMAL":22,"TEXCOORD_0":23},"indices":20,"material":5}],"name":"towers"},{"primitives":[{"attributes":{"POSITION":25,"NORMAL":26,"TEXCOORD_0":27},"indices":24,"material":6}],"name":"walls"},{"primitives":[{"attributes":{"POSITION":29,"NORMAL":30,"TEXCOORD_0":31},"indices":28,"material":7}],"name":"wall windows"},{"primitives":[{"attributes":{"POSITION":33,"NORMAL":34,"TEXCOORD_0":35},"indices":32,"material":8}],"name":"tower windows"},{"primitives":[{"attributes":{"POSITION":37,"NORMAL":38,"TEXCOORD_0":39},"indices":36,"material":9}],"name":"wood frames"}],"accessors":[{"bufferView":0,"componentType":5123,"count":8052,"type":"SCALAR","name":"accessorIndices"},{"bufferView":1,"componentType":5126,"count":8052,"max":[49.45558,15.9764395,17.7727222],"min":[-40.4819565,7.4862163E-07,-17.7727222],"type":"VEC3","name":"accessorPositions"},{"bufferView":1,"byteOffset":96624,"componentType":5126,"count":8052,"type":"VEC3","name":"accessorNormals"},{"bufferView":2,"componentType":5126,"count":8052,"type":"VEC2","name":"accessorUVs"},{"bufferView":0,"byteOffset":16104,"componentType":5123,"count":13248,"type":"SCALAR","name":"accessorIndices"},{"bufferView":1,"byteOffset":193248,"componentType":5126,"count":13248,"max":[43.07695,13.4343128,-0.009198761],"min":[-46.11839,-13.3533039,-5.830742],"type":"VEC3","name":"accessorPositions"},{"bufferView":1,"byteOffset":352224,"componentType":5126,"count":13248,"type":"VEC3","name":"accessorNormals"},{"bufferView":2,"byteOffset":64416,"componentType":5126,"count":13248,"type":"VEC2","name":"accessorUVs"},{"bufferView":0,"byteOffset":42600,"componentType":5123,"count":822,"type":"SCALAR","name":"accessorIndices"},{"bufferView":1,"byteOffset":511200,"componentType":5126,"count":822,"max":[45.81152,14.640029,-1.54016447],"min":[-42.8262024,-14.0639668,-32.7384758],"type":"VEC3","name":"accessorPositions"},{"bufferView":1,"byteOffset":521064,"componentType":5126,"count":822,"type":"VEC3","name":"accessorNormals"},{"bufferView":2,"byteOffset":170400,"componentType":5126,"count":822,"type":"VEC2","name":"accessorUVs"},{"bufferView":0,"byteOffset":44244,"componentType":5123,"count":4320,"type":"SCALAR","name":"accessorIndices"},{"bufferView":1,"byteOffset":530928,"componentType":5126,"count":4320,"max":[-34.5206833,11.5537291,14.7882967],"min":[-49.45558,-7.629394E-07,4.831697],"type":"VEC3","name":"accessorPositions"},{"bufferView":1,"byteOffset":582768,"componentType":5126,"count":4320,"type":"VEC3","name":"accessorNormals"},{"bufferView":2,"byteOffset":176976,"componentType":5126,"count":4320,"type":"VEC2","name":"accessorUVs"},{"bufferView":0,"byteOffset":52884,"componentType":5123,"count":37320,"type":"SCALAR","name":"accessorIndices"},{"bufferView":1,"byteOffset":634608,"componentType":5126,"count":37320,"max":[45.4865036,58.0847321,15.2398243],"min":[-43.69778,2.89195085,-15.0924873],"type":"VEC3","name":"accessorPositions"},{"bufferView":1,"byteOffset":1082448,"componentType":5126,"count":37320,"type":"VEC3","name":"accessorNormals"},{"bufferView":2,"byteOffset":211536,"componentType":5126,"count":37320,"type":"VEC2","name":"accessorUVs"},{"bufferView":0,"byteOffset":127524,"componentType":5123,"count":41400,"type":"SCALAR","name":"accessorIndices"},{"bufferView":1,"byteOffset":1530288,"componentType":5126,"count":41400,"max":[46.0579147,36.12462,14.7718983],"min":[33.30058,-3.05175763E-06,-14.3291235],"type":"VEC3","name":"accessorPositions"},{"bufferView":1,"byteOffset":2027088,"componentType":5126,"count":41400,"type":"VEC3","name":"accessorNormals"},{"bufferView":2,"byteOffset":510096,"componentType":5126,"count":41400,"type":"VEC2","name":"accessorUVs"},{"bufferView":0,"byteOffset":210324,"componentType":5123,"count":7704,"type":"SCALAR","name":"accessorIndices"},{"bufferView":1,"byteOffset":2523888,"componentType":5126,"count":7704,"max":[36.62821,27.69525,15.0165644],"min":[-43.656,3.05175763E-06,-17.10613],"type":"VEC3","name":"accessorPositions"},{"bufferView":1,"byteOffset":2616336,"componentType":5126,"count":7704,"type":"VEC3","name":"accessorNormals"},{"bufferView":2,"byteOffset":841296,"componentType":5126,"count":7704,"type":"VEC2","name":"accessorUVs"},{"bufferView":0,"byteOffset":225732,"componentType":5123,"count":44622,"type":"SCALAR","name":"accessorIndices"},{"bufferView":1,"byteOffset":2708784,"componentType":5126,"count":44622,"max":[35.12974,23.28155,15.1740789],"min":[-43.0893059,1.8086493,-13.4514484],"type":"VEC3","name":"accessorPositions"},{"bufferView":1,"byteOffset":3244248,"componentType":5126,"count":44622,"type":"VEC3","name":"accessorNormals"},{"bufferView":2,"byteOffset":902928,"componentType":5126,"count":44622,"type":"VEC2","name":"accessorUVs"},{"bufferView":0,"byteOffset":314976,"componentType":5123,"count":59682,"type":"SCALAR","name":"accessorIndices"},{"bufferView":1,"byteOffset":3779712,"componentType":5126,"count":59682,"max":[14.44406,32.940258,46.1538849],"min":[-14.7165518,1.52412176,33.5501022],"type":"VEC3","name":"accessorPositions"},{"bufferView":1,"byteOffset":4495896,"componentType":5126,"count":59682,"type":"VEC3","name":"accessorNormals"},{"bufferView":2,"byteOffset":1259904,"componentType":5126,"count":59682,"type":"VEC2","name":"accessorUVs"},{"bufferView":0,"byteOffset":434340,"componentType":5123,"count":32856,"type":"SCALAR","name":"accessorIndices"},{"bufferView":1,"byteOffset":5212080,"componentType":5126,"count":32856,"max":[45.9256363,32.7828178,14.8715963],"min":[-42.9276848,1.559635,-13.3710089],"type":"VEC3","name":"accessorPositions"},{"bufferView":1,"byteOffset":5606352,"componentType":5126,"count":32856,"type":"VEC3","name":"accessorNormals"},{"bufferView":2,"byteOffset":1737360,"componentType":5126,"count":32856,"type":"VEC2","name":"accessorUVs"}],"bufferViews":[{"buffer":0,"byteLength":500052,"name":"bufferViewScalar"},{"buffer":0,"byteOffset":500052,"byteLength":6000624,"byteStride":12,"name":"bufferViewFloatVec3"},{"buffer":0,"byteOffset":6500676,"byteLength":2000208,"byteStride":8,"name":"bufferViewFloatVec2"}],"buffers":[{"uri":"sobor_05.bin","byteLength":8500884}],"materials":[{"pbrMetallicRoughness":{"baseColorTexture":{"index":1},"metallicFactor":0.0,"roughnessFactor":0.7022211},"normalTexture":{"index":0,"scale":0.799999952},"doubleSided":true,"name":"counterfort"},{"pbrMetallicRoughness":{"baseColorTexture":{"index":3},"metallicFactor":0.0,"roughnessFactor":0.7022211},"normalTexture":{"index":2,"scale":0.5},"doubleSided":true,"name":"doors"},{"pbrMetallicRoughness":{"baseColorFactor":[0.06666667,0.06666667,0.06666667,1.0],"metallicFactor":0.0,"roughnessFactor":0.201679826},"doubleSided":true,"name":" glass"},{"pbrMetallicRoughness":{"baseColorTexture":{"index":5},"metallicFactor":0.0,"roughnessFactor":0.7022211},"normalTexture":{"index":4,"scale":0.5},"doubleSided":true,"name":"kant's tomb"},{"pbrMetallicRoughness":{"baseColorTexture":{"index":7},"metallicFactor":0.0,"roughnessFactor":0.7022211},"normalTexture":{"index":6,"scale":0.799999952},"doubleSided":true,"name":"roof"},{"pbrMetallicRoughness":{"baseColorTexture":{"index":9},"metallicFactor":0.0,"roughnessFactor":0.7022211},"normalTexture":{"index":8,"scale":0.799999952},"doubleSided":true,"name":"towers"},{"pbrMetallicRoughness":{"baseColorTexture":{"index":11},"metallicFactor":0.0,"roughnessFactor":0.7022211},"normalTexture":{"index":10,"scale":0.799999952},"doubleSided":true,"name":"walls"},{"pbrMetallicRoughness":{"baseColorTexture":{"index":13},"metallicFactor":0.0,"roughnessFactor":0.7022211},"normalTexture":{"index":12,"scale":0.5},"doubleSided":true,"name":"wall windows"},{"pbrMetallicRoughness":{"baseColorTexture":{"index":15},"metallicFactor":0.0,"roughnessFactor":0.7022211},"normalTexture":{"index":14,"scale":0.5},"doubleSided":true,"name":"tower windows"},{"pbrMetallicRoughness":{"baseColorTexture":{"index":17},"metallicFactor":0.0,"roughnessFactor":0.240331292},"normalTexture":{"index":16,"scale":0.5},"doubleSided":true,"name":"wood frames"}],"textures":[{"sampler":0,"source":0,"name":"counterfort NORMALS.jpg"},{"sampler":0,"source":1,"name":"counterfort DIFFUSE.jpg"},{"sampler":0,"source":2,"name":"door NORMALS.jpg"},{"sampler":0,"source":3,"name":"door DIFFUSE.jpg"},{"sampler":0,"source":4,"name":"kant_s tomb NORMALS.jpg"},{"sampler":0,"source":5,"name":"kant_s tomb DIFFUSE.jpg"},{"sampler":0,"source":6,"name":"roof NORMALS.jpg"},{"sampler":0,"source":7,"name":"roof DIFFUSE.jpg"},{"sampler":0,"source":8,"name":"towers NORMALS.jpg"},{"sampler":0,"source":9,"name":"towers DIFFUSE.jpg"},{"sampler":0,"source":10,"name":"walls NORMALS.jpg"},{"sampler":0,"source":11,"name":"walls DIFFUSE.jpg"},{"sampler":0,"source":12,"name":"wall windows NORMALS.jpg"},{"sampler":0,"source":13,"name":"wall windows DIFFUSE.jpg"},{"sampler":0,"source":14,"name":"tower windows NORMALS.jpg"},{"sampler":0,"source":15,"name":"tower windows DIFFUSE.jpg"},{"sampler":0,"source":16,"name":"wood frames NORMALS.jpg"},{"sampler":0,"source":17,"name":"wood frames DIFFUSE.jpg"}],"images":[{"uri":"counterfort NORMALS.jpg"},{"uri":"counterfort DIFFUSE.jpg"},{"uri":"door NORMALS.jpg"},{"uri":"door DIFFUSE.jpg"},{"uri":"kant_s tomb NORMALS.jpg"},{"uri":"kant_s tomb DIFFUSE.jpg"},{"uri":"roof NORMALS.jpg"},{"uri":"roof DIFFUSE.jpg"},{"uri":"towers NORMALS.jpg"},{"uri":"towers DIFFUSE.jpg"},{"uri":"walls NORMALS.jpg"},{"uri":"walls DIFFUSE.jpg"},{"uri":"wall windows NORMALS.jpg"},{"uri":"wall windows DIFFUSE.jpg"},{"uri":"tower windows NORMALS.jpg"},{"uri":"tower windows DIFFUSE.jpg"},{"uri":"wood frames NORMALS.jpg"},{"uri":"wood frames DIFFUSE.jpg"}],"samplers":[{"magFilter":9729,"minFilter":9987}]}